<svg xmlns="http://www.w3.org/2000/svg" version="1.1" xmlns:xlink="http://www.w3.org/1999/xlink" width="512" height="512" x="0" y="0" viewBox="0 0 52 52" style="enable-background:new 0 0 512 512" xml:space="preserve" class=""><g><path fill="#65b9ff" d="M49.8 41.1c-.2.4-.5.8-.8 1-1.1.9-2.7 1.8-5 2.4C31.7 48.4 12 33.7 3.7 27c-2.1-1.7-2.3-4.8-.5-6.9L14.5 7.4c.3-.3.7-.6 1.2-.6 1.1 0 1.1 1 1 1.7s-.2 1.4-.1 2.2c.3 5.5 3.5 7 6.9 6.9 1.4 0 2.7-.3 4-.6 1.8-.5 3.2-1.1 3.6-1.3h.1l8.6 14.9s7.6 3.7 9.7 7.5c.5 1 .7 2 .3 3z" opacity="1" data-original="#65b9ff" class=""></path><path fill="#3e7fff" d="M16.8 8.3c-.8.2-.2 0-12.1 13.2-1.5 1.7-1.6 4.1-.4 5.8-.2-.1-.4-.3-.5-.4-2.1-1.7-2.3-4.8-.5-6.8L14.5 7.4c.3-.4.8-.6 1.2-.6 1 0 1.1.9 1.1 1.5zM35.1 28.8l-1.4.8-10.6 6.2-1.2-1.9L32 28l1.9-1.2zM32.4 24.6l-2 1.2-12.1 7.1-1.2-1.9 12.1-7.1 2.1-1.2zM29.9 20.5 28 21.7 13.8 30l-1.2-1.9 14.5-8.5 1.7-1z" opacity="1" data-original="#3e7fff" class=""></path><path fill="#deddff" d="M49.8 41.1c-.2.4-.5.8-.8 1-1.1.9-2.7 1.8-5 2.4C31.7 48.4 12 33.7 3.7 27c-2.1-1.7-2.3-4.8-.5-6.9l2.6-2.9c-.9 1.9-.4 4.3 1.3 5.7 8.2 6.7 28 21.4 40.2 17.5 1-.3 1.9-.6 2.7-1 0 .6 0 1.1-.2 1.7z" opacity="1" data-original="#deddff" class=""></path><path fill="#deddff" d="M49.8 41.1c-.2.4-.5.8-.8 1-1.1.9-2.7 1.8-5 2.4-12 3.8-31.2-10.2-39.7-17.1-.2-.1-.4-.3-.5-.4-2.1-1.7-2.3-4.8-.5-6.8l2.6-2.9c-.5 1-.5 2.2-.2 3.3.3.9.8 1.7 1.5 2.3 8.2 6.7 28 21.4 40.2 17.5 1-.3 1.9-.6 2.7-1-.1.6-.1 1.1-.3 1.7z" opacity="1" data-original="#deddff" class=""></path><path fill="#c6c6f7" d="m5.6 20.6-.9 1c-1.5 1.7-1.6 4.1-.4 5.8-.2-.1-.4-.3-.5-.4-2.1-1.7-2.3-4.8-.5-6.8l2.6-2.9c-.6 1-.7 2.2-.3 3.3z" opacity="1" data-original="#c6c6f7"></path><path fill="#5b5e8b" d="M49.7 41.2c-.2.4-.4.7-.8.9-1.1.9-2.7 1.8-5 2.4C31.7 48.4 12 33.7 3.7 27c-2.1-1.7-2.3-4.8-.5-6.9l1.1-1.2c-1.4 2-1.1 5 .9 6.6 8.2 6.7 28 21.4 40.2 17.5 1.8-.4 3.2-1.1 4.3-1.8z" opacity="1" data-original="#5b5e8b" class=""></path><path fill="#65b9ff" d="m31.5 9.9-.2 4.3-.1 1.4h-.1c-.6.3-4.2 1.8-7.6 1.9v-2c0-3.8 3.1-6.9 6.9-6.9.6.1 1.2.7 1.1 1.3z" opacity="1" data-original="#65b9ff" class=""></path><path fill="#65b9ff" d="M39.8 30.6C32.2 31.3 27.5 17 27.5 17c1.8-.5 3.2-1.1 3.6-1.3h.1z" opacity="1" data-original="#65b9ff" class=""></path><path fill="#3e7fff" d="m30.6 14.6.7-.3-.1 1.4h-.1c-.6.3-3.4 1.5-6.4 1.8-.4 0-.8.1-1.1.1v-2c0-3.8 3.1-6.9 6.8-6.9.5 0 .9.3 1.1.7-2.8 0-5.2 1.7-6.2 4.2-.5 1.2.6 2.6 1.9 2.3 1.7-.5 3-1.1 3.4-1.3z" opacity="1" data-original="#3e7fff" class=""></path><path fill="#deddff30" d="M49.5 38.1c-15.9 2.7-9.7-7.5-9.7-7.5s7.6 3.7 9.7 7.5z" opacity="1" data-original="#deddff30"></path><path fill="#5b5e8b" d="M39.4 26.6c0 .3-.2.5-.5.5h-3.7c-.3 0-.5-.2-.5-.5s.2-.5.5-.5h3.7c.3 0 .5.3.5.5z" opacity="1" data-original="#5b5e8b" class=""></path><path fill="#312e4b" d="M37.2 27.2h-2c-.3 0-.5-.2-.5-.5s.2-.5.5-.5h2c-.3 0-.5.2-.5.5 0 .2.2.5.5.5z" opacity="1" data-original="#312e4b"></path><path fill="#5b5e8b" d="M37.8 23.9c0 .3-.2.5-.5.5h-3.7c-.3 0-.5-.2-.5-.5s.2-.5.5-.5h3.7c.3 0 .5.2.5.5z" opacity="1" data-original="#5b5e8b" class=""></path><path fill="#312e4b" d="M35.6 24.4h-2c-.3 0-.5-.2-.5-.5s.2-.5.5-.5h2c-.3 0-.5.2-.5.5 0 .2.2.5.5.5z" opacity="1" data-original="#312e4b"></path><path fill="#5b5e8b" d="M34.5 18.3c0 .3-.2.5-.5.5h-3.7c-.3 0-.5-.2-.5-.5s.2-.5.5-.5H34c.3 0 .5.2.5.5z" opacity="1" data-original="#5b5e8b" class=""></path><path fill="#312e4b" d="M32.3 18.8h-2c-.3 0-.5-.2-.5-.5s.2-.5.5-.5h2c-.3 0-.5.2-.5.5s.2.5.5.5z" opacity="1" data-original="#312e4b"></path><path fill="#5b5e8b" d="M36.4 21.1c0 .3-.2.5-.5.5h-3.7c-.3 0-.5-.2-.5-.5s.2-.5.5-.5h3.7c.3 0 .5.2.5.5z" opacity="1" data-original="#5b5e8b" class=""></path><path fill="#312e4b" d="M34.2 21.6h-2c-.3 0-.5-.2-.5-.5s.2-.5.5-.5h2c-.3 0-.5.2-.5.5s.2.5.5.5zM4.3 27.4c-.2-.1-.4-.3-.5-.4-2.1-1.7-2.3-4.8-.5-6.8L4.4 19c-.9 1.3-1.1 2.9-.6 4.4-.6 1.3-.4 2.8.5 4z" opacity="1" data-original="#312e4b"></path></g></svg>